<svg width="179" height="42" viewBox="0 0 179 42" fill="none" xmlns="http://www.w3.org/2000/svg">
<g clip-path="url(#clip0_455_1360)">
<path d="M178.218 31.6411C178.218 33.1735 177.065 34.2234 175.635 34.2234C174.206 34.2234 173.047 33.1735 173.047 31.6411C173.047 30.1086 174.199 29.0383 175.635 29.0383C177.071 29.0383 178.218 30.0946 178.218 31.6411ZM177.706 31.6411C177.706 30.3573 176.823 29.5006 175.635 29.5006C174.446 29.5006 173.556 30.3573 173.556 31.6411C173.556 32.9248 174.468 33.7602 175.635 33.7602C176.801 33.7602 177.706 32.9044 177.706 31.6411ZM176.85 32.1868C176.698 32.6287 176.305 33.0083 175.628 33.0083C174.793 33.0083 174.33 32.4625 174.33 31.5724C174.33 30.6822 174.834 30.1568 175.649 30.1568C176.306 30.1568 176.699 30.5365 176.83 31.034L176.312 31.1788C176.222 30.7927 175.953 30.5922 175.629 30.5922C175.208 30.5922 174.897 30.9031 174.897 31.5724C174.897 32.2416 175.208 32.5665 175.629 32.5665C175.932 32.5665 176.223 32.4347 176.326 32.0485L176.85 32.1868Z" fill="#090909"/>
<path d="M58.4917 14.238H62.1043V22.0685H69.2238V14.238H72.8355V33.7492H69.2238V25.4435H62.1043V33.7492H58.4917V14.238Z" fill="#090909"/>
<path d="M75.4714 14.238H78.9782V17.4552H75.4714V14.238ZM75.4714 19.1427H78.9782V33.7492H75.4714V19.1427Z" fill="#090909" />
<path d="M83.8281 29.1617C83.8811 30.2431 84.6979 30.9021 85.7533 30.9021C86.6759 30.9021 87.3879 30.3749 87.3879 29.3993C87.3879 28.5287 86.8077 28.1862 86.0698 27.8966C85.5686 27.6859 85.0682 27.554 84.567 27.3953C83.1431 26.947 80.8495 26.0243 80.8495 23.1766C80.8495 21.1725 82.4052 18.6682 85.7802 18.6682C88.4163 18.6682 90.3944 20.4875 90.4992 23.1506H86.9924C86.9395 22.5704 86.571 21.9903 85.6744 21.9903C84.7257 21.9903 84.3563 22.5964 84.3563 23.2295C84.3563 24.3897 85.7533 24.6534 86.597 24.865C88.3894 25.2864 90.8947 26.0782 90.8947 29.1886C90.8947 32.0095 88.8117 34.2251 85.6215 34.2251C82.2205 34.2251 80.3483 31.7728 80.3223 29.1626H83.8291L83.8281 29.1617Z" fill="#090909"/>
<path d="M92.2649 14.238H95.7717V20.2501C96.8531 18.958 98.4608 18.6684 99.5421 18.6684C102.917 18.6684 105.238 21.0939 105.238 25.2068V33.7492H101.731V25.9976C101.731 22.7284 100.175 21.9905 98.8042 21.9905C95.9564 21.9905 95.7726 24.7065 95.7726 25.9976V33.7492H92.2658V14.238H92.2649Z" fill="#090909"/>
<path d="M122.059 33.749H118.842V31.7719H118.79C117.102 34.0924 114.677 34.2242 113.912 34.2242C110.194 34.2242 106.766 31.2975 106.766 26.5776C106.766 21.8576 109.984 18.6682 114.017 18.6682C116.1 18.6682 117.734 19.538 118.789 21.1995H118.842V19.1425H122.058V33.749H122.059ZM110.273 26.5776C110.273 29.0559 112.014 30.9021 114.571 30.9021C117.128 30.9021 118.763 29.0828 118.763 26.4198C118.763 23.7567 117.101 21.9903 114.571 21.9903C112.041 21.9903 110.273 23.9414 110.273 26.5776Z" fill="#090909"/>
<path d="M127.833 14.238V20.6715H127.886C128.993 19.3794 130.549 18.6675 132.343 18.6675C137.431 18.6675 139.62 22.7275 139.62 26.446C139.62 30.1644 137.378 34.2244 132.448 34.2244C130.603 34.2244 128.757 33.5125 127.597 31.7721H127.544V33.7492H124.326V14.238H127.833ZM127.623 26.2612C127.623 28.8454 129.415 30.9014 131.973 30.9014C134.531 30.9014 136.113 28.9763 136.113 26.4719C136.113 23.9676 134.504 21.9896 131.973 21.9896C129.574 21.9896 127.623 23.7829 127.623 26.2612Z" fill="#090909"/>
<path d="M144.285 28.0014C144.733 29.7938 146.236 30.9021 148.108 30.9021C149.243 30.9021 150.508 30.5856 151.378 29.5311H155.333C153.382 34.1713 148.925 34.2242 148.24 34.2242C142.993 34.2242 140.515 29.8996 140.515 26.5516C140.515 23.2035 143.019 18.6682 148.293 18.6682C152.749 18.6682 155.808 22.0961 155.808 26.4467C155.808 26.9739 155.808 27.4751 155.729 28.0024H144.286L144.285 28.0014ZM152.142 24.8901C151.641 23.0438 150.085 21.9894 148.293 21.9894C146.369 21.9894 144.813 23.1496 144.233 24.8901H152.142Z" fill="#090909"/>
<path d="M160.58 28.0014C161.028 29.7938 162.531 30.9021 164.403 30.9021C165.538 30.9021 166.803 30.5856 167.673 29.5311H171.628C169.677 34.1713 165.22 34.2242 164.535 34.2242C159.288 34.2242 156.81 29.8996 156.81 26.5516C156.81 23.2035 159.314 18.6682 164.588 18.6682C169.044 18.6682 172.103 22.0961 172.103 26.4467C172.103 26.9739 172.103 27.4751 172.024 28.0024H160.581L160.58 28.0014ZM168.437 24.8901C167.936 23.0438 166.38 21.9894 164.588 21.9894C162.664 21.9894 161.108 23.1496 160.528 24.8901H168.437Z" fill="#090909"/>
<path d="M45.6619 22.3553C47.0783 24.648 47.2083 27.5134 46.0044 29.9249C44.7968 32.3327 42.4289 33.9515 39.7436 34.1929C37.0619 34.4342 34.4416 33.2702 32.8228 31.1112H14.1554C12.5403 33.2702 9.91991 34.4342 7.23458 34.1929C4.54925 33.9515 2.18136 32.3327 0.977463 29.9249C-0.226436 27.5134 -0.100198 24.648 1.31626 22.3553C2.73644 20.0626 5.23798 18.6675 7.93446 18.6675H23.4914L21.156 21.7779H25.824L23.4923 18.6675H39.0493C41.742 18.6675 44.2473 20.0626 45.6637 22.3553H45.6619ZM30.4902 27.9998L28.1585 24.8893H18.8225L16.4908 27.9998H30.4911H30.4902Z" fill="#FFCB05"/>
<path d="M15.7119 34.2214H31.2688C31.2688 36.2867 30.4474 38.2657 28.991 39.7221C27.5309 41.1821 25.552 41.9999 23.4904 41.9999C21.4288 41.9999 19.4498 41.1812 17.9898 39.7221C16.5297 38.2657 15.7119 36.2867 15.7119 34.2214Z" fill="#FFCB05"/>
<path d="M28.991 2.27785C30.4511 3.73793 31.2688 5.71318 31.2688 7.77847C31.2688 9.84375 30.4502 11.8153 28.991 13.2791C27.5272 14.7392 25.5557 15.5569 23.4904 15.5569C21.4251 15.5569 19.4498 14.7382 17.9898 13.2754C16.5297 11.8153 15.7119 9.84375 15.7119 7.77847C15.7119 5.71318 16.5306 3.73793 17.9898 2.27785C19.4498 0.818688 21.4251 0 23.4904 0C25.5557 0 27.5272 0.818688 28.991 2.27785Z" fill="#FFCB05"/>
</g>
<defs>
<clipPath id="clip0_455_1360">
<rect width="178.218" height="42" fill="white"/>
</clipPath>
</defs>
</svg>
