<svg width="84" height="84" viewBox="0 0 84 84" fill="none" xmlns="http://www.w3.org/2000/svg">
<path d="M7.10889 16.8262H76.8912V76.5532H7.10889V16.8262Z" fill="#E9EAEB"/>
<path d="M68.0317 16.8262H76.8911V76.5532H68.0317V16.8262Z" fill="#B9BBC1"/>
<path d="M77.1345 16.8259H6.86548V7.02123C6.86546 6.83496 6.90213 6.65052 6.9734 6.47843C7.04467 6.30634 7.14914 6.14998 7.28085 6.01827C7.41255 5.88657 7.56892 5.78209 7.74101 5.71082C7.91309 5.63955 8.09754 5.60288 8.2838 5.60291H75.7161C75.9024 5.60288 76.0868 5.63955 76.2589 5.71082C76.431 5.78209 76.5874 5.88657 76.7191 6.01827C76.8508 6.14998 76.9553 6.30634 77.0265 6.47843C77.0978 6.65052 77.1345 6.83496 77.1345 7.02123V16.8259Z" fill="#FDC74F"/>
<path d="M75.7162 5.60291H68.2751V12.9839H77.1345V7.02123C77.1345 6.64506 76.9851 6.28431 76.7191 6.01832C76.4531 5.75234 76.0924 5.60291 75.7162 5.60291Z" fill="#FCA629"/>
<path d="M7.10914 34.6056C3.89745 34.6056 1.29395 32.0021 1.29395 28.7904V24.0527H12.9242V28.7904C12.9242 32.0021 10.3207 34.6056 7.10914 34.6056Z" fill="#E60D28"/>
<path d="M18.7393 34.6056C15.5276 34.6056 12.9241 32.0021 12.9241 28.7904V24.0527H24.5543V28.7904C24.5545 32.0021 21.951 34.6056 18.7393 34.6056Z" fill="#F2F2F2"/>
<path d="M30.3699 34.6056C27.1582 34.6056 24.5547 32.0021 24.5547 28.7904V24.0527H36.1849V28.7904C36.1849 32.0021 33.5814 34.6056 30.3699 34.6056Z" fill="#E60D28"/>
<path d="M42 34.6056C38.7883 34.6056 36.1848 32.0021 36.1848 28.7904V24.0527H47.815V28.7904C47.8152 32.0021 45.2117 34.6056 42 34.6056Z" fill="#F2F2F2"/>
<path d="M53.6304 34.6056C50.4187 34.6056 47.8152 32.0021 47.8152 28.7904V24.0527H59.4454V28.7904C59.4454 32.0021 56.8419 34.6056 53.6304 34.6056Z" fill="#E60D28"/>
<path d="M65.2605 34.6056C62.0488 34.6056 59.4453 32.0021 59.4453 28.7904V24.0527H71.0755V28.7904C71.0757 32.0021 68.4722 34.6056 65.2605 34.6056Z" fill="#F2F2F2"/>
<path d="M76.8909 34.6056C73.6792 34.6056 71.0757 32.0021 71.0757 28.7904V24.0527H82.7059V28.7904C82.7061 32.0021 80.1026 34.6056 76.8909 34.6056Z" fill="#E60D28"/>
<path d="M12.9242 24.0529H1.29395L6.8596 12.9839H16.8997L12.9242 24.0529Z" fill="#FC502A"/>
<path d="M24.5545 24.0529H12.9241L16.8996 12.9839H26.9398L24.5545 24.0529Z" fill="white"/>
<path d="M36.1849 24.0529H24.5547L26.94 12.9839H36.9801L36.1849 24.0529Z" fill="#FC502A"/>
<path d="M47.8152 24.0529H36.1848L36.98 12.9839H47.02L47.8152 24.0529Z" fill="white"/>
<path d="M59.4455 24.0529H47.8152L47.02 12.9839H57.0602L59.4455 24.0529Z" fill="#FC502A"/>
<path d="M71.0758 24.0529H59.4454L57.0601 12.9839H67.1002L71.0758 24.0529Z" fill="white"/>
<path d="M82.7061 24.0529H71.0759L67.1003 12.9839H77.1405L82.7061 24.0529Z" fill="#FC502A"/>
<path d="M80.1135 71.0963H3.88631C2.41943 71.0963 1.23047 72.2854 1.23047 73.7523V77.6444C1.23051 77.844 1.30985 78.0355 1.45103 78.1767C1.59221 78.3179 1.78369 78.3972 1.98335 78.3973H82.0166C82.2163 78.3972 82.4078 78.3179 82.549 78.1767C82.6901 78.0355 82.7695 77.844 82.7695 77.6444V73.7523C82.7695 72.2854 81.5804 71.0963 80.1135 71.0963Z" fill="#8B8996"/>
<path d="M80.1136 71.0963H73.8828V78.3971H82.0167C82.2164 78.3971 82.4079 78.3178 82.5491 78.1766C82.6903 78.0354 82.7696 77.8439 82.7696 77.6442V73.7522C82.7694 72.2854 81.5803 71.0963 80.1136 71.0963Z" fill="#706F7F"/>
<path d="M70.0176 63.2904H34.1988C33.9182 63.2904 33.649 63.1789 33.4506 62.9805C33.2521 62.782 33.1406 62.5129 33.1406 62.2322V42.5226C33.1406 42.2419 33.2521 41.9727 33.4506 41.7743C33.649 41.5758 33.9182 41.4644 34.1988 41.4644H70.0176C70.2983 41.4644 70.5674 41.5758 70.7659 41.7743C70.9643 41.9727 71.0758 42.2419 71.0758 42.5226V62.2322C71.0758 62.5129 70.9643 62.782 70.7659 62.9805C70.5674 63.1789 70.2983 63.2904 70.0176 63.2904Z" fill="#00C6C8"/>
<path d="M70.0175 41.4644H62.189V63.2904H70.0175C70.2982 63.2904 70.5673 63.1789 70.7658 62.9805C70.9642 62.782 71.0757 62.5129 71.0757 62.2322V42.5226C71.0757 42.2419 70.9642 41.9727 70.7658 41.7743C70.5673 41.5758 70.2982 41.4644 70.0175 41.4644Z" fill="#0FB0C0"/>
<path d="M28.1099 71.0963H11.7678V42.5226C11.7678 42.2419 11.8793 41.9727 12.0778 41.7743C12.2762 41.5758 12.5454 41.4644 12.826 41.4644H27.0517C27.3324 41.4644 27.6015 41.5758 27.8 41.7743C27.9984 41.9727 28.1099 42.2419 28.1099 42.5226V71.0963Z" fill="#00C6C8"/>
<path d="M27.0517 41.4644H19.2231V71.0965H28.1099V42.5226C28.1099 42.2419 27.9984 41.9727 27.8 41.7743C27.6015 41.5758 27.3324 41.4644 27.0517 41.4644Z" fill="#0FB0C0"/>
<path d="M23.543 58.202C23.8693 58.202 24.1823 58.0723 24.413 57.8416C24.6438 57.6108 24.7734 57.2978 24.7734 56.9715V54.7567C24.7734 54.4303 24.6438 54.1173 24.413 53.8866C24.1823 53.6558 23.8693 53.5262 23.543 53.5262C23.2166 53.5262 22.9037 53.6558 22.6729 53.8866C22.4421 54.1173 22.3125 54.4303 22.3125 54.7567V56.9715C22.3125 57.2978 22.4421 57.6108 22.6729 57.8416C22.9037 58.0723 23.2166 58.202 23.543 58.202Z" fill="black"/>
<path d="M80.1137 69.8659H78.1215V35.7263C81.4216 35.1422 83.9367 32.2555 83.9367 28.7903V24.0529C83.9367 24.0288 83.9344 24.0051 83.9331 23.9813C83.9322 23.9681 83.9322 23.9548 83.9311 23.9415C83.9269 23.8935 83.9199 23.8458 83.9101 23.7986C83.9096 23.7958 83.9086 23.7932 83.908 23.7905C83.8982 23.7461 83.8859 23.7023 83.8712 23.6593C83.8676 23.6485 83.8633 23.6376 83.8594 23.627C83.8459 23.5904 83.8307 23.5546 83.8138 23.5195C83.8107 23.5131 83.8087 23.5064 83.8056 23.5002L78.3649 12.6804V7.02123C78.3649 5.56074 77.1766 4.37244 75.7162 4.37244H19.7623C19.436 4.37244 19.123 4.50208 18.8922 4.73283C18.6615 4.96359 18.5318 5.27656 18.5318 5.60291C18.5318 5.92925 18.6615 6.24222 18.8922 6.47298C19.123 6.70374 19.436 6.83337 19.7623 6.83337H75.7162C75.8197 6.83337 75.904 6.9177 75.904 7.02123V11.7534H8.09599V7.02123C8.09599 6.9177 8.18032 6.83337 8.28384 6.83337H14.0372C14.3635 6.83337 14.6765 6.70374 14.9073 6.47298C15.138 6.24222 15.2677 5.92925 15.2677 5.60291C15.2677 5.27656 15.138 4.96359 14.9073 4.73283C14.6765 4.50207 14.3635 4.37244 14.0372 4.37244H8.28384C6.82336 4.37244 5.63505 5.56074 5.63505 7.02123V12.6804L0.194578 23.5002C0.191461 23.5066 0.189328 23.5133 0.186375 23.5195C0.169466 23.5546 0.154245 23.5904 0.140766 23.627C0.136828 23.6378 0.132563 23.6485 0.128953 23.6593C0.114251 23.7023 0.101982 23.7461 0.0922031 23.7905L0.0900703 23.7986C0.0802266 23.8453 0.0733359 23.8929 0.0690703 23.9415C0.0679219 23.9548 0.0679219 23.9681 0.0671016 23.9813C0.0657891 24.0051 0.0634922 24.0288 0.0634922 24.0529V28.7903C0.0634922 32.2553 2.57857 35.1422 5.87869 35.7263V69.8659H3.88631C1.74333 69.8659 0 71.6093 0 73.7523V77.6442C0 78.7379 0.889711 79.6276 1.98335 79.6276H82.0166C83.1103 79.6276 84 78.7379 84 77.6442V73.7523C84 71.6093 82.2567 69.8659 80.1137 69.8659ZM81.4756 28.7905C81.4756 31.3186 79.4189 33.3752 76.8908 33.3752C74.3628 33.3752 72.3061 31.3186 72.3061 28.7905V25.2835H81.4756V28.7905ZM76.3818 14.2144L80.7101 22.8224H71.9412L68.8496 14.2144H76.3818ZM66.2347 14.2144L69.3262 22.8224H60.439L58.5839 14.2144H66.2347ZM69.8453 25.2833V28.7903C69.8453 31.3184 67.7887 33.3751 65.2606 33.3751C62.7326 33.3751 60.6759 31.3184 60.6759 28.7903V25.2833H69.8453ZM56.0666 14.2144L57.9216 22.8224H48.9605L48.3422 14.2144H56.0666ZM58.215 25.2833V28.7903C58.215 31.3184 56.1583 33.3751 53.6304 33.3751C51.1025 33.3751 49.0457 31.3184 49.0457 28.7903V25.2833H58.215ZM38.1252 14.2144H45.8747L46.493 22.8224H37.5068L38.1252 14.2144ZM37.4153 25.2833H46.5847V28.7903C46.5847 31.3184 44.528 33.3751 42 33.3751C39.472 33.3751 37.4153 31.3184 37.4153 28.7903V25.2833ZM42 35.836C44.4124 35.836 46.5447 34.6169 47.8152 32.7628C49.0857 34.6169 51.218 35.836 53.6304 35.836C56.0428 35.836 58.1751 34.6169 59.4454 32.7628C60.7159 34.6169 62.8482 35.836 65.2606 35.836C67.673 35.836 69.8053 34.6169 71.0758 32.7628C72.1252 34.2942 73.763 35.3904 75.6605 35.7263V69.8659H29.3403V42.5225C29.3403 41.2606 28.3136 40.2339 27.0516 40.2339H12.8259C11.5639 40.2339 10.5372 41.2606 10.5372 42.5225V69.8659H8.33963V35.7263C10.2372 35.3904 11.875 34.2942 12.9244 32.7628C14.1949 34.6169 16.3272 35.836 18.7395 35.836C21.1519 35.836 23.2842 34.6169 24.5547 32.7628C25.8252 34.6169 27.9576 35.836 30.3698 35.836C32.782 35.836 34.9145 34.6169 36.185 32.7628C37.4553 34.6169 39.5876 35.836 42 35.836ZM26.8793 42.6948V69.8659H12.9982V42.6948H26.8793ZM14.1547 28.7905V25.2835H23.3241V28.7905C23.3241 31.3186 21.2674 33.3752 18.7394 33.3752C16.2113 33.3752 14.1547 31.3184 14.1547 28.7905ZM27.9334 14.2144H35.6578L35.0395 22.8224H26.0784L27.9334 14.2144ZM25.785 25.2833H34.9543V28.7903C34.9543 31.3184 32.8976 33.3751 30.3696 33.3751C27.8416 33.3751 25.785 31.3184 25.785 28.7903V25.2833ZM25.4159 14.2144L23.5609 22.8224H14.6736L17.7652 14.2144H25.4159ZM7.61824 14.2144H15.1504L12.0588 22.8224H3.28995L7.61824 14.2144ZM2.52443 28.7905V25.2835H11.6939V28.7905C11.6939 31.3186 9.6372 33.3752 7.10916 33.3752C4.58112 33.3752 2.52443 31.3184 2.52443 28.7905ZM81.5391 77.1666H2.46094V73.7522C2.46094 72.9661 3.10029 72.3268 3.88631 72.3268H80.1135C80.8996 72.3268 81.5389 72.9661 81.5389 73.7522V77.1666H81.5391Z" fill="black"/>
<path d="M31.9102 42.5226V62.2324C31.9102 63.4944 32.9369 64.5211 34.1988 64.5211H70.0174C71.2794 64.5211 72.3061 63.4944 72.3061 62.2324V42.5226C72.3061 41.2606 71.2794 40.2339 70.0174 40.2339H54.9708C54.6444 40.2339 54.3315 40.3635 54.1007 40.5943C53.87 40.825 53.7403 41.138 53.7403 41.4644C53.7403 41.7907 53.87 42.1037 54.1007 42.3344C54.3315 42.5652 54.6444 42.6948 54.9708 42.6948H69.8453V62.0599H34.3711V42.6948H49.1777C49.5041 42.6948 49.8171 42.5652 50.0478 42.3344C50.2786 42.1037 50.4082 41.7907 50.4082 41.4644C50.4082 41.138 50.2786 40.825 50.0478 40.5943C49.8171 40.3635 49.5041 40.2339 49.1777 40.2339H34.1988C32.9369 40.2339 31.9102 41.2604 31.9102 42.5226Z" fill="black"/>
</svg>
